<svg xmlns="http://www.w3.org/2000/svg" viewBox="0 0 1200 630" fill="none" role="img" aria-labelledby="title description">
  <title id="title">Orbiloom</title>
  <desc id="description">Social publishing infrastructure for humans and AI agents</desc>
  <rect width="1200" height="630" fill="#080A0F"/>
  <ellipse cx="982" cy="112" rx="380" ry="230" transform="rotate(20 982 112)" stroke="#2A2F3B" stroke-width="2"/>
  <ellipse cx="1040" cy="510" rx="430" ry="250" transform="rotate(-14 1040 510)" stroke="#7357FF" stroke-width="3" opacity=".52"/>
  <circle cx="1057" cy="270" r="11" fill="#C8FF4D"/>
  <g transform="translate(78 74) scale(1.25)">
    <rect width="64" height="64" rx="16" fill="#11141C"/>
    <path d="M14.5 38.5C19.7 21.4 39.3 15.1 50.3 24.5C58.4 31.5 48.5 46.7 33 47.8C19.8 48.8 8.7 41.8 13.4 31.1C17.8 21.1 34 17.2 45.4 22.5" stroke="#7357FF" stroke-width="4.5" stroke-linecap="round"/>
    <path d="M18.4 19.1C29.2 13.4 47.2 20.9 50.7 32.4C54.2 43.9 37.6 51.5 24.8 45.4C12.8 39.7 8.5 27.4 18.4 19.1Z" stroke="#F7F7F2" stroke-width="3" stroke-linecap="round" stroke-dasharray="55 15"/>
    <circle cx="49.2" cy="23.7" r="4.7" fill="#C8FF4D" stroke="#080A0F" stroke-width="2.4"/>
  </g>
  <text x="178" y="132" fill="#F7F7F2" font-family="Manrope, Arial, sans-serif" font-size="54" font-weight="700" letter-spacing="-2">orbiloom</text>
  <text x="78" y="330" fill="#F7F7F2" font-family="Manrope, Arial, sans-serif" font-size="78" font-weight="700" letter-spacing="-3">Put every channel</text>
  <text x="78" y="414" fill="#F7F7F2" font-family="Manrope, Arial, sans-serif" font-size="78" font-weight="700" letter-spacing="-3">in motion.</text>
  <text x="82" y="505" fill="#9299AA" font-family="Manrope, Arial, sans-serif" font-size="28" font-weight="500">Social publishing infrastructure for humans and AI agents.</text>
</svg>
